<svg width="268" height="161" viewBox="0 0 268 161" fill="none" xmlns="http://www.w3.org/2000/svg">
<path fill-rule="evenodd" clip-rule="evenodd" d="M99.6256 112.969C108.909 104.817 115 93.7916 115 81.0001C115 71.8847 111.907 63.7749 106.77 57.0001C113.881 49.7493 111.435 29.4921 107.724 13.5489C106.521 8.38338 105.186 3.6707 104 0C97.0358 7.12249 91.4599 13.6606 87.1298 19.2643C80.5167 27.8222 76.8094 34.2005 75.5 37.152C70.1265 35.7421 64.5477 35.0001 59 35.0001C57.8366 35.0001 56.6691 35.0327 55.5 35.0973C52.3294 35.2724 49.1467 35.6826 46 36.3142C24.8 9.76545 15.1667 7.70946 13 10.0001C7.00005 37.2001 8.5752 52.6667 10.1128 57.0001C4.75651 63.7749 1.50004 71.8847 1.50004 81.0001C1.50004 92.5427 6.72167 102.648 14.8164 110.5C16.2874 111.927 17.8534 113.28 19.5 114.553C30.4703 123.036 45.026 128 59 128C66.2919 128 73.6375 126.648 80.5 124.15C87.5876 121.57 94.1599 117.768 99.6256 112.969ZM81.5 39.0356C80.6667 35.1904 82.8 25.6 98 18C101.833 23.6596 107.7 38.031 100.5 50.2394C95.1195 45.4364 88.585 41.6387 81.5 39.0356ZM54.5 50.2394L53.5 60.5C38.5 61.5 32.7349 72.3557 31.5 81.0001C31 84.5001 30.9 95.5 52.5 107.5C52.5 111.667 51.3 115.2 48.5 118C45 121.5 23.2275 116.137 19.5 97.5C17.5 87.5 14.5 59.4788 54.5 50.2394ZM80.5 84C81.3838 96.8147 68 104.5 55.5 102.5C48 101.5 36.5 93.6 38.5 78C39.1667 72.8333 44.6 62.8 61 64C61.8011 64.1144 62.5877 64.2463 63.3576 64.3988C68.5718 65.0992 79.3 70 80.5 84Z" fill="#00615D"/>
<path d="M72.948 74.25C72.3959 73.9419 65.6042 74 65.0521 74.25C64.5 74.5 64.6042 76 65.0521 76.25C65.5 76.5 69.948 76.25 69.948 76.25C69.948 76.25 65.6042 80.5 66.0521 80.75C66.5 81 72.5 81 72.948 80.75C73.3959 80.5 73.5 79.5 72.948 79.25C72.3959 79 69 80 69.448 79.25C69.8959 78.5 73.5 74.5581 72.948 74.25Z" fill="#00615D"/>
<path d="M48.5 78C49 77.5 62.7138 77.2138 63.5 78C64.2863 78.7862 54 89.5 54 90C54 90.5 66 89.5 66.5 90C67 90.5 66.948 93 66.5 93C66.0521 93 49 93.5 48.5 92.5C48 91.5 59.5 81 59 80.5C58.5 80 49 81 48.5 80.5C48 80 48 78.5 48.5 78Z" fill="#00615D"/>
<path d="M59 35.0001C64.5477 35.0001 70.1265 35.7421 75.5 37.152C76.8094 34.2005 80.5167 27.8222 87.1298 19.2643C73.9813 23.7438 62.9655 29.2747 55.5 35.0973C56.6691 35.0327 57.8366 35.0001 59 35.0001Z" fill="#00615D"/>
<path fill-rule="evenodd" clip-rule="evenodd" d="M19.5 114.553C30.4703 123.036 45.026 128 59 128C66.2919 128 73.6375 126.648 80.5 124.15C94.5 123.801 116.5 104.944 119 88.5C121 75.3449 113.013 62.3708 106.77 57.0001C118.985 57.0001 112.496 28.0326 107.724 13.5489C175.332 -1.31193 272.649 13.1376 267 128C251 145 215.5 154.667 200.5 157C147.667 161 36.2 164.5 13 146.5C-10.1999 128.5 4.5443 115 14.8164 110.5C16.2874 111.927 17.8534 113.28 19.5 114.553ZM165.827 56C169.494 55.3333 175.027 55.4 167.827 61C167.202 61.4865 166.463 61.9589 165.63 62.4167C161.98 64.4223 156.506 66.1487 150.691 67.5575C142.551 69.5292 133.742 70.8786 128.327 71.5C125.327 70.989 120.827 69.5736 126.827 68C132.331 66.5868 140.371 64.4433 147.73 62.3251C156.86 59.6969 164.941 57.1075 165.827 56ZM165.827 72.5C170.327 71.5 177.027 71 167.827 77C164.128 79.4125 159.173 80.7741 154.094 81.4749C146.541 82.5171 138.712 82.098 134.327 81.5001C130.494 80.2473 124.827 77.5934 132.827 77C138.248 76.6612 146.474 76.0212 153.36 75.2111C160.025 74.427 165.434 73.4837 165.827 72.5ZM170.327 92C175.16 93.1667 181.727 95.7 169.327 96.5C156.927 97.3 140.827 94.8333 134.327 93.5C130.827 91.6678 125.927 88.1028 134.327 88.5C138.967 88.66 146.158 89.012 153 89.5561C160.412 90.1454 167.415 90.9601 170.327 92ZM104 118C130.058 114.046 228 110.5 239 114.553C253 119.711 148.724 123.01 104 118ZM134.327 14.5C218.827 8.5 246.718 50.1762 251.5 66C253.281 71.8187 252.987 72.125 244 67C199.556 41.6561 171.229 41.8193 139.5 43.5C141.5 26.7 139 20 134.327 14.5Z" fill="#00615D"/>
</svg>
