<svg width="232" height="279" viewBox="0 0 232 279" fill="none" xmlns="http://www.w3.org/2000/svg">
<path fill-rule="evenodd" clip-rule="evenodd" d="M114.328 128C100.354 128 85.6432 123.036 74.673 114.553C58.173 117.869 24.2275 136.3 19.8275 183.5C17.1799 211.901 32.5027 231.588 50.1754 244C61.8732 252.215 74.6007 257.243 83.8276 259.5C85.1571 259.82 86.666 260.153 88.3276 260.486C97.9507 262.412 112.692 264.334 127.328 263.838C136.459 263.529 145.548 262.278 153.328 259.5C159.686 257.229 165.363 254.152 170.328 250.727C182.851 242.086 190.844 231.229 193.828 225.5C206.911 198.646 218 139.075 155.5 113.5C144.742 122.946 129.15 128 114.328 128ZM119.828 136.5C139.428 140.5 151.411 151.167 154.953 156C83.8535 122 49.3274 156 44.3274 193.5C39.3274 231 81.8276 248 101.328 249.5C160.128 255.1 177.494 219.833 178.828 201.5C184.494 222 178.328 261.8 108.328 257C38.3276 252.2 23.8275 206 25.3275 183.5C36.1275 129.5 65.4942 122 78.8276 125C91.2276 134.625 111.328 136.677 119.828 136.5ZM108.328 244C174.728 244.4 174.972 195.676 170.328 183.5C151.828 135 60.8274 145.5 54.8274 181C46.2909 231.507 85.1609 241.816 108.328 244Z" fill="#00615D"/>
<path d="M110.328 208.5H136.828C137.994 208.833 137.728 210.5 127.328 214.5C125.494 216.5 124.828 219.6 136.828 216C148.828 212.4 151.494 207.167 151.328 205C151.994 204.167 149.328 201.6 133.328 198C117.328 194.4 128.328 200.167 135.828 203.5H107.328V193.5C106.828 192.667 107.028 191.9 111.828 195.5C116.628 199.1 110.828 188 107.328 182C106.494 180.833 102.728 182.6 94.3276 199C95.0403 200.5 97.6381 201.5 102.328 193.5V205C99.8276 207.167 96.5276 212.1 103.328 214.5C106.161 214.833 110.328 214.1 110.328 208.5Z" fill="#00615D"/>
<path d="M83.8276 259.5C74.6007 257.243 61.8732 252.215 50.1754 244C43.8927 246.166 32.6274 252.7 37.8274 261.5C43.0274 270.3 52.3274 265.167 56.3274 261.5C56.6607 265.833 58.0326 273 61.8274 273C69.8273 273 69.6609 268.167 71.3275 266.5C72.1609 270.167 74.8275 277.4 78.8276 277C83.4942 279.49 91.9275 279.674 88.3276 260.486C86.666 260.153 85.1571 259.82 83.8276 259.5Z" fill="#00615D"/>
<path d="M153.328 259.5C145.548 262.278 136.459 263.529 127.328 263.838C125.994 268.225 125.028 277 131.828 277C138.628 277 142.328 272 143.328 269.5C144.786 272.5 148.189 277 151.328 277C156.328 277 156.869 271.5 157.828 269.5C166.161 272.318 180.328 272.508 170.328 250.727C165.363 254.152 159.686 257.229 153.328 259.5Z" fill="#00615D"/>
<path d="M182 68C194.333 64.8333 219.4 58 221 56C224.667 55.3333 230.2 55.4 223 61C215.8 66.6 193.667 70.3333 183.5 71.5C180.5 70.989 176 69.5735 182 68Z" fill="#00615D"/>
<path d="M188 76.9999C198.667 76.3333 220.2 74.4999 221 72.4999C225.5 71.4999 232.2 70.9999 223 76.9999C213.8 82.9999 196.833 82.5 189.5 81.5C185.667 80.2472 180 77.5933 188 76.9999Z" fill="#00615D"/>
<path d="M189.5 88.5C199.167 88.8333 219.9 90 225.5 92C230.333 93.1666 236.9 95.7 224.5 96.5C212.1 97.3 196 94.8333 189.5 93.5C186 91.6678 181.1 88.1028 189.5 88.5Z" fill="#00615D"/>
<path d="M36 66C39.5 67 44.4 69.6 36 72C27.6 74.4 13.1667 70.3333 7 68C5 64.6667 3.2 59.1 12 63.5C20.8 67.9 31.6667 67 36 66Z" fill="#00615D"/>
<path d="M32.4999 79.5C36.9999 80.1667 43.2999 82.2 32.4999 85C24.3332 85.8333 7.49989 87.7 5.49989 88.5C1.16662 87.5 -4.59994 85.0999 6.99998 83.5C18.5999 81.9 28.8332 80.1667 32.4999 79.5Z" fill="#00615D"/>
<path d="M31.4999 92.5C36.3333 91.5 44.0001 91 36 97C29 99.9824 13.7999 106.858 8.99987 110.5C3.4999 111.333 -4.90006 111.6 5.49991 106C14.1666 102.167 31.4999 94.1 31.4999 92.5Z" fill="#00615D"/>
<path fill-rule="evenodd" clip-rule="evenodd" d="M155.5 113.5C164.784 105.349 170.173 93.7916 170.173 81C170.173 71.8847 167.08 63.7749 161.943 57C171.358 47.4001 164.019 15 159.173 0C141.573 18 132.84 32.268 130.673 37.152C125.299 35.7421 119.721 35 114.173 35C109.854 35 105.48 35.4498 101.173 36.3142C79.973 9.76548 70.3396 7.70946 68.173 10.0001C62.173 37.2 63.7481 52.6667 65.2857 57C59.9294 63.7749 56.673 71.8847 56.673 81C56.673 94.6402 63.9648 106.273 74.673 114.553C85.6432 123.036 100.9 128.531 114.874 128.531C129.697 128.531 144.742 122.946 155.5 113.5ZM136.673 39.0356C135.84 35.1904 137.973 25.6 153.173 18C157.006 23.6596 162.873 38.031 155.673 50.2394C150.292 45.4364 143.758 41.6386 136.673 39.0356ZM109.673 50.2394L107.673 73C91.673 64.5 87.3158 76.5001 86.673 81C86.0301 85.5 86.073 95.5 107.673 107.5C107.673 111.667 106.473 115.2 103.673 118C100.173 121.5 78.4005 116.137 74.673 97.5C72.673 87.5 69.673 59.4788 109.673 50.2394ZM126.673 87C132.173 78 117.173 70 108.673 83C105.673 76.5 93.2188 71 91.173 82C90.3501 86.4241 94.173 91.5 99.173 94C104.173 96.5 110.673 102.5 110.673 102.5C119.673 95.5 124.832 90.0123 126.673 87Z" fill="#00615D"/>
</svg>
